<svg width="90" height="69" viewBox="0 0 90 69" fill="none" xmlns="http://www.w3.org/2000/svg">
<path d="M86.0998 51.8405C86.0998 60.2888 79.0248 67.2155 70.1998 67.2155C61.3748 67.2155 54.2998 60.2888 54.2998 51.8405C54.2998 43.3921 61.3748 36.4655 70.1998 36.4655C79.0248 36.4655 86.0998 43.3921 86.0998 51.8405Z" stroke="white" stroke-width="3"/>
<path d="M35.7004 50.5905C35.7004 59.0388 28.6254 65.9655 19.8004 65.9655C10.9754 65.9655 3.90039 59.0388 3.90039 50.5905C3.90039 42.1421 10.9754 35.2155 19.8004 35.2155C28.6254 35.2155 35.7004 42.1421 35.7004 50.5905Z" stroke="white" stroke-width="3"/>
<path d="M34.8003 48.0905L39.0003 46.2155L40.2003 45.5905L40.336 45.5198C41.0352 45.1556 41.8119 44.9655 42.6003 44.9655V44.9655H43.8003H45.0003H46.2003H47.4003H48.6003V44.9655C49.3887 44.9655 50.1654 45.1556 50.8646 45.5198L51.0003 45.5905L51.2441 45.7174C51.8773 46.0472 52.4525 46.4782 52.947 46.9932V46.9932C53.2484 47.3073 53.5804 47.5905 53.938 47.8388L55.2003 48.7155" stroke="white" stroke-width="3"/>
<line x1="3.6001" y1="49.2155" x2="2.4001" y2="49.2155" stroke="white"/>
<line x1="3.6001" y1="50.2155" x2="9.77516e-05" y2="50.2155" stroke="white" stroke-width="3"/>
<line x1="90" y1="50.2155" x2="86.4" y2="50.2155" stroke="white" stroke-width="3"/>
<path d="M34.2504 14.4768L31.4941 17.3927C33.246 19.3173 34.2297 21.9239 34.2297 24.6414C34.2297 27.359 33.246 29.9656 31.4941 31.8901L34.2504 34.9087C35.4693 33.5739 36.4362 31.9893 37.0959 30.2451C37.7556 28.5011 38.0951 26.6318 38.0951 24.7441C38.0951 22.8564 37.7556 20.9871 37.0959 19.243C36.4362 17.4989 35.4693 15.9143 34.2504 14.5795V14.4768Z" fill="#8F00FF"/>
<path d="M45.5005 28.7484C47.5714 28.7484 49.2505 26.9097 49.2505 24.6415C49.2505 22.3732 47.5714 20.5345 45.5005 20.5345C43.4294 20.5345 41.7505 22.3732 41.7505 24.6415C41.7505 26.9097 43.4294 28.7484 45.5005 28.7484Z" fill="white"/>
<path d="M25.644 21.746L28.3065 18.8301C29.0028 19.5934 29.5549 20.4996 29.9313 21.4967C30.3077 22.4939 30.5011 23.5623 30.5003 24.6414C30.5011 25.7203 30.3077 26.7889 29.9313 27.7861C29.5549 28.7832 29.0028 29.6892 28.3065 30.4527L25.644 27.5368C26.3425 26.7673 26.7345 25.7264 26.7345 24.6414C26.7345 23.5563 26.3425 22.5155 25.644 21.746Z" fill="#8F00FF"/>
<path d="M56.7505 24.6414C56.7559 21.9206 57.7472 19.3136 59.5067 17.3927L56.8442 14.4768C55.6253 15.8116 54.6583 17.3962 53.9987 19.1403C53.3389 20.8844 52.9995 22.7537 52.9995 24.6414C52.9995 26.5292 53.3389 28.3984 53.9987 30.1424C54.6583 31.8866 55.6253 33.4713 56.8442 34.806L59.5067 31.8901C57.7472 29.9693 56.7559 27.362 56.7505 24.6414Z" fill="#8F00FF"/>
<path d="M65.3564 21.746C64.6521 22.5126 64.2543 23.5539 64.2501 24.6414C64.2543 25.7289 64.6521 26.77 65.3564 27.5368L62.6939 30.4527C61.9966 29.6898 61.4433 28.7838 61.0658 27.7867C60.6884 26.7897 60.4941 25.7207 60.4941 24.6414C60.4941 23.5619 60.6884 22.4931 61.0658 21.4959C61.4433 20.4988 61.9966 19.5929 62.6939 18.8301L65.3564 21.746Z" fill="#8F00FF"/>
</svg>
