<svg width="47" height="52" viewBox="0 0 47 52" fill="none" xmlns="http://www.w3.org/2000/svg">
<path fill-rule="evenodd" clip-rule="evenodd" d="M14.1081 4.16C9.13357 9.04922 8.53479 14.341 12.2731 20.3681C19.3091 31.7078 37.2427 26.0024 37.2577 12.4188C37.2651 6.14579 30.4918 0 23.5691 0C19.283 0 17.5775 0.750024 14.1081 4.16ZM27.4456 6.19228C31.0022 8.06306 32.5346 12.8018 30.7955 16.5519C28.1104 22.3453 18.49 22.119 16.3949 16.213C13.7296 8.69807 20.5142 2.54616 27.4456 6.19228ZM12.8034 31.8521C5.83094 33.9664 -1.05319 43.6984 0.134416 49.7622C0.540243 51.8336 2.27933 52 23.5865 52H46.5992L46.9689 48.2903C47.3872 44.0923 43.5418 37.719 38.2785 33.8869C34.4156 31.0752 19.3378 29.8712 12.8034 31.8521ZM37.0186 39.75C39.0428 41.425 40.9935 43.9027 41.3545 45.2559C41.9882 47.6418 41.4329 47.7176 23.4209 47.7176H4.83255L6.72475 44.1217C9.88174 38.1203 13.1284 36.7059 23.7508 36.7059C32.1475 36.7059 33.7932 37.084 37.0186 39.75Z" fill="white"/>
</svg>
